<?xml version="1.0" encoding="UTF-8" standalone="no"?>
<!-- Created with Inkscape (http://www.inkscape.org/) -->

<svg
   xmlns:dc="http://purl.org/dc/elements/1.1/"
   xmlns:cc="http://creativecommons.org/ns#"
   xmlns:rdf="http://www.w3.org/1999/02/22-rdf-syntax-ns#"
   xmlns:svg="http://www.w3.org/2000/svg"
   xmlns="http://www.w3.org/2000/svg"
   xmlns:sodipodi="http://sodipodi.sourceforge.net/DTD/sodipodi-0.dtd"
   xmlns:inkscape="http://www.inkscape.org/namespaces/inkscape"
   version="1.1"
   id="svg2"
   xml:space="preserve"
   width="377.95334"
   height="377.95334"
   viewBox="0 0 377.95334 377.95334"
   sodipodi:docname="Israel_prison_service_Icon_2018.svg"
   inkscape:version="0.92.3 (2405546, 2018-03-11)"><metadata
     id="metadata8"><rdf:RDF><cc:Work
         rdf:about=""><dc:format>image/svg+xml</dc:format><dc:type
           rdf:resource="http://purl.org/dc/dcmitype/StillImage" /><dc:title></dc:title></cc:Work></rdf:RDF></metadata><defs
     id="defs6"><clipPath
       clipPathUnits="userSpaceOnUse"
       id="clipPath18"><path
         d="M 0,283.465 H 283.465 V 0 H 0 Z"
         id="path16"
         inkscape:connector-curvature="0" /></clipPath><clipPath
       clipPathUnits="userSpaceOnUse"
       id="clipPath46"><path
         d="m 124.001,236.969 c -2.804,-3.697 -3.121,-7.869 -1.03,-11.811 v 0 c 5.037,-9.488 10.313,-19.489 15.138,-28.507 v 0 c 1.265,15.99 2.082,33.811 3.377,50.178 v 0 c 0.104,-0.004 0.21,-0.002 0.313,-0.001 v 0 c 0.069,0.001 0.137,0.001 0.202,0.001 v 0 c 1.265,-16.442 2.147,-33.881 3.4,-50.178 v 0 l 15.162,28.561 c 2.249,4.318 1.285,8.272 -0.262,10.57 v 0 l -18.532,25.792 z"
         id="path44"
         inkscape:connector-curvature="0" /></clipPath><clipPath
       clipPathUnits="userSpaceOnUse"
       id="clipPath130"><path
         d="M 0,283.465 H 283.465 V 0 H 0 Z"
         id="path128"
         inkscape:connector-curvature="0" /></clipPath></defs><sodipodi:namedview
     pagecolor="#ffffff"
     bordercolor="#666666"
     borderopacity="1"
     objecttolerance="10"
     gridtolerance="10"
     guidetolerance="10"
     inkscape:pageopacity="0"
     inkscape:pageshadow="2"
     inkscape:window-width="1920"
     inkscape:window-height="1005"
     id="namedview4"
     showgrid="false"
     inkscape:zoom="2.2831678"
     inkscape:cx="188.976"
     inkscape:cy="183.64374"
     inkscape:window-x="-9"
     inkscape:window-y="-9"
     inkscape:window-maximized="1"
     inkscape:current-layer="g10" /><g
     id="g10"
     inkscape:groupmode="layer"
     inkscape:label="Israel_prison_service_Icon_2018"
     transform="matrix(1.3333333,0,0,-1.3333333,0,377.95333)"><path
       inkscape:connector-curvature="0"
       id="path22"
       style="fill:#282e3c;fill-opacity:1;fill-rule:nonzero;stroke:none"
       d="m 113.5323,196.6959 c 8.985,-0.412 0.827,-0.041 8.329,-0.051 -1.225,1.587 -2.048,2.623 -2.785,3.496 -3.847,4.561 -7.767,9.061 -11.727,13.523 -0.384,0.433 -1.213,0.636 -1.844,0.658 -2.326,0.079 -4.654,0.036 -7.553,0.039 4.835,-5.883 9.306,-11.353 13.832,-16.775 0.392,-0.47 1.144,-0.863 1.748,-0.89" /><path
       inkscape:connector-curvature="0"
       id="path26"
       style="fill:#282e3c;fill-opacity:1;fill-rule:nonzero;stroke:none"
       d="m 169.9327,196.7145 c -2.304,-0.105 -5.546,-0.047 -8.33,-0.05 1.226,1.586 2.049,2.622 2.785,3.495 3.848,4.561 7.768,9.061 11.728,13.523 0.384,0.433 1.213,0.636 1.844,0.658 2.325,0.079 4.654,0.036 7.553,0.039 -4.835,-5.883 -9.306,-11.353 -13.832,-16.775 -0.392,-0.469 -1.144,-0.863 -1.748,-0.89" /><path
       inkscape:connector-curvature="0"
       id="path30"
       style="fill:#282e3c;fill-opacity:1;fill-rule:nonzero;stroke:none"
       d="m 136.5929,196.486 h -13.026 c 0,0 -6.958,9.036 -10.068,12.62 -1.409,1.624 -5.025,6.005 -3.769,8.28 1.35,2.45 8.347,11.703 8.347,11.703 z" /><path
       inkscape:connector-curvature="0"
       id="path34"
       style="fill:#282e3c;fill-opacity:1;fill-rule:nonzero;stroke:none"
       d="m 146.8273,196.486 h 13.027 c 0,0 6.957,9.036 10.068,12.62 1.409,1.624 5.024,6.005 3.769,8.28 -1.351,2.45 -8.348,11.703 -8.348,11.703 z" /><path
       inkscape:connector-curvature="0"
       id="path38"
       style="fill:#282e3c;fill-opacity:1;fill-rule:nonzero;stroke:none"
       d="m 141.7687,261.5739 -17.768,-24.604 c -2.804,-3.698 -3.121,-7.871 -1.029,-11.811 5.036,-9.489 10.312,-19.49 15.138,-28.508 1.264,15.99 2.082,33.812 3.377,50.179 0.173,-0.008 0.352,0.002 0.514,0 1.265,-16.443 2.147,-33.882 3.401,-50.179 l 15.161,28.561 c 2.249,4.318 1.285,8.272 -0.262,10.57 z" /><path
       inkscape:connector-curvature="0"
       id="path50"
       style="fill:#282e3c;fill-opacity:1;fill-rule:nonzero;stroke:none"
       d="M 120.4425,244.486 Z" /><path
       inkscape:connector-curvature="0"
       id="path54"
       style="fill:#282e3c;fill-opacity:1;fill-rule:nonzero;stroke:none"
       d="M 120.4425,246.486 Z" /><path
       inkscape:connector-curvature="0"
       id="path58"
       style="fill:#282e3c;fill-opacity:1;fill-rule:nonzero;stroke:none"
       d="m 120.4425,246.486 v 1" /><path
       inkscape:connector-curvature="0"
       id="path62"
       style="fill:#282e3c;fill-opacity:1;fill-rule:nonzero;stroke:none"
       d="M 120.4425,246.486 Z" /><path
       inkscape:connector-curvature="0"
       id="path66"
       style="fill:#282e3c;fill-opacity:1;fill-rule:nonzero;stroke:none"
       d="M 120.4425,249.486 Z" /><path
       inkscape:connector-curvature="0"
       id="path70"
       style="fill:#282e3c;fill-opacity:1;fill-rule:nonzero;stroke:none"
       d="m 120.4425,249.486 v 1" /><path
       inkscape:connector-curvature="0"
       id="path74"
       style="fill:#282e3c;fill-opacity:1;fill-rule:nonzero;stroke:none"
       d="M 120.4425,249.486 Z" /><path
       inkscape:connector-curvature="0"
       id="path78"
       style="fill:#282e3c;fill-opacity:1;fill-rule:nonzero;stroke:none"
       d="M 120.4425,250.486 Z" /><path
       inkscape:connector-curvature="0"
       id="path82"
       style="fill:#282e3c;fill-opacity:1;fill-rule:nonzero;stroke:none"
       d="m 120.4425,251.486 v 1" /><path
       inkscape:connector-curvature="0"
       id="path86"
       style="fill:#282e3c;fill-opacity:1;fill-rule:nonzero;stroke:none"
       d="M 120.4425,252.486 Z" /><path
       inkscape:connector-curvature="0"
       id="path90"
       style="fill:#282e3c;fill-opacity:1;fill-rule:nonzero;stroke:none"
       d="M 120.4425,252.486 Z" /><path
       inkscape:connector-curvature="0"
       id="path94"
       style="fill:#282e3c;fill-opacity:1;fill-rule:nonzero;stroke:none"
       d="M 120.4425,254.486 Z" /><path
       inkscape:connector-curvature="0"
       id="path98"
       style="fill:#282e3c;fill-opacity:1;fill-rule:nonzero;stroke:none"
       d="m 120.4425,254.486 v 1" /><path
       inkscape:connector-curvature="0"
       id="path102"
       style="fill:#282e3c;fill-opacity:1;fill-rule:nonzero;stroke:none"
       d="M 120.4425,255.486 Z" /><path
       inkscape:connector-curvature="0"
       id="path106"
       style="fill:#282e3c;fill-opacity:1;fill-rule:nonzero;stroke:none"
       d="M 120.4425,255.486 Z" /><path
       inkscape:connector-curvature="0"
       id="path110"
       style="fill:#282e3c;fill-opacity:1;fill-rule:nonzero;stroke:none"
       d="M 120.4425,257.486 Z" /><path
       inkscape:connector-curvature="0"
       id="path114"
       style="fill:#282e3c;fill-opacity:1;fill-rule:nonzero;stroke:none"
       d="m 120.4425,257.486 v 1" /><path
       inkscape:connector-curvature="0"
       id="path118"
       style="fill:#282e3c;fill-opacity:1;fill-rule:nonzero;stroke:none"
       d="M 120.4425,257.486 Z" /><path
       inkscape:connector-curvature="0"
       id="path122"
       style="fill:#282e3c;fill-opacity:1;fill-rule:nonzero;stroke:none"
       d="M 120.4425,258.486 Z" /><path
       inkscape:connector-curvature="0"
       id="path134"
       style="fill:#282e3c;fill-opacity:1;fill-rule:nonzero;stroke:none"
       d="m 143.3155,140.736 c -6.542,0.008 -12.905,0.015 -19.284,0.022 -0.004,-3.446 -0.008,-6.577 -0.012,-10.024 11.323,-0.014 22.507,-0.042 33.691,0.016 0.668,0.003 1.251,0.551 1.281,1.22 0.124,2.874 0.068,5.806 0.071,8.703 -1.36,0.024 -2.302,-0.01 -3.62,0 0.001,1.157 0.003,2.507 0.003,3.488 0.006,5.875 0.037,11.751 0.007,17.627 -0.018,3.162 -1.768,5.563 -4.673,5.621 -8.933,0.179 -17.869,0.083 -27.025,0.093 -0.004,-3.469 -0.007,-6.584 -0.011,-10.005 6.642,-0.008 13.106,-0.015 19.593,-0.024 -0.007,-5.685 -0.013,-11.056 -0.021,-16.737" /><path
       inkscape:connector-curvature="0"
       id="path138"
       style="fill:#282e3c;fill-opacity:1;fill-rule:nonzero;stroke:none"
       d="m 148.3458,99.734 c -0.14349,-1.48541 -1.75566,-2.690484 -2.949,-2.967 -2.06066,-0.477485 -4.40998,-0.464914 -6.457,0.057 -1.17698,0.300086 -2.69354,1.543128 -2.841,3.091 -0.35677,3.74502 -0.126,7.548 -0.122,11.422 4.228,-0.004 8.192,-0.009 12.523,-0.014 -0.005,-3.911 0.217,-7.779 -0.154,-11.589 m 5.229,20.646 c -8.689,0.025 -17.376,0.03 -26.064,0.028 -0.86,0.006 -1.26,0.013 -2.806,0.012 -0.355,-3.754 -1.068,-7.366 1.511,-9.183 -0.219,-3.973 -0.909,-7.855 -0.475,-11.607 0.302,-2.62 1.619,-5.54 3.395,-7.496 6.011,-6.62 19.524,-6.576 26.209,-0.261 2.481,2.344 3.795,4.931 3.782,8.668 0,4.88 -0.039,9.572 -0.037,14.359 0.002,4.334 -1.124,5.468 -5.515,5.48"
       sodipodi:nodetypes="csssccccccccccccc" /><path
       inkscape:connector-curvature="0"
       id="path142"
       style="fill:#282e3c;fill-opacity:1;fill-rule:nonzero;stroke:none"
       d="m 255.3185,135.4547 c 0,0 -0.355,5.656 -2.75,10.968 0,0 -3.813,-5.839 -3.123,-12.358 0,0 -6.926,7.469 -3.531,20.506 1.853,7.115 5.774,10.547 5.774,10.547 0,0 6.312,-5.251 6.719,-14.621 0.408,-9.37 -2.003,-13.141 -3.089,-15.042 m 2.003,-17.142 c -0.679,-6.45 -0.679,-12.832 -9.982,-19.079 0,0 2.785,7.401 2.106,11.625 0,0 -5.432,-1.847 -8.42,-8.841 0,0 -2.715,5.161 1.223,13.58 3.938,8.419 7.061,12.764 11.571,15.024 0,0 4.181,-5.858 3.502,-12.309 m -11.373,-36.969 c -3.259,-5.093 -8.046,-8.352 -17.415,-6.315 0,0 7.753,4.413 7.65,8.283 0,0 -6.937,-0.034 -10.91,-3.191 0,0 0.611,3.26 4.38,7.436 3.769,4.174 8.657,6.314 19.045,5.193 0,0 0.51,-6.315 -2.75,-11.406 m -20.208,-21.569 c -3.56,-6.062 -8.475,-10.157 -18.188,-8.12 0,0 7.283,3.718 9.799,8.067 0,0 -2.821,1.075 -10.461,-2.72 0,0 1.307,4.702 6.875,8.912 5.568,4.209 11.504,4.392 13.688,4.073 0,0 1.025,-5.55 -1.713,-10.212 m 1.469,59.354 c 0,0 5.397,-3.361 6.823,-10.287 1.426,-6.926 0,-12.324 -1.629,-14.869 -1.63,-2.546 -3.26,-3.158 -3.26,-3.158 0,0 0.408,4.328 -2.658,8.096 0,0 -3.302,-2.852 -2.739,-8.096 0,0 -2.823,2.326 -3.602,9.514 -0.777,7.189 1.463,12.587 7.065,18.8 m 4.311,32.998 c 0,0 5.296,-2.037 8.012,-6.79 2.716,-4.753 7.876,-15.616 0,-26.752 0,0 -0.951,9.913 -3.939,12.765 0,0 -3.53,-4.345 -1.764,-11.542 0,0 -7.407,7.687 -7.778,13.621 -0.37,5.932 -0.237,12.042 5.469,18.698 m -5.591,16.091 c -2.342,5.704 -2.896,13.24 -1.979,16.5 0,0 2.829,-0.218 8.289,-5.1 5.46,-4.882 10.857,-13.335 9.533,-21.686 0,0 -2.268,4.968 -8.277,9.551 0,0 -1.392,-5.227 1.328,-10.672 0,0 -6.551,5.704 -8.894,11.407 m -11.044,33.813 c -3.87,8.249 -3.124,15.209 -3.124,15.209 0,0 8.216,-0.747 12.799,-7.57 4.583,-6.824 6.071,-10.446 5.005,-18.842 0,0 -2.56,5.907 -6.736,8.453 0,0 -1.654,-2.75 0.701,-8.453 0,0 -4.775,2.953 -8.645,11.203 m -14.038,26.827 c -4.729,4.475 -6.603,8.344 -7.296,13.495 0,0 2.514,0.116 9.413,-2.341 6.9,-2.458 19.05,-10.143 16.403,-20.141 0,0 -5.527,2.496 -7.063,2.937 -4.971,1.426 -8.147,2.918 -11.457,6.05 m 36.776,-24.332 c 0,0 7.205,-5.143 9.242,-11.05 2.037,-5.907 4.277,-11.508 1.426,-21.49 0,0 -1.759,7.857 -5.65,12.236 0,0 -1.072,-6.94 0.965,-13.457 0,0 -3.973,3.87 -6.314,10.897 -2.343,7.027 -3.412,15.685 0.331,22.864 m -38.94,-158.656 c -3.157,-4.583 -8.648,-12.038 -19.037,-11.07 0,0 4.287,4.27 7.063,8.742 0,0 -1.563,1.137 -10.016,-3.65 0,0 0.611,5.908 5.092,10.287 4.481,4.379 11.136,7.706 19.792,6.008 0,0 0.263,-5.733 -2.894,-10.317 m -45.211,-16.57 c 0,0 5.594,4.26 6.056,7.019 0,0 -0.861,1.332 -11.352,-3.251 0,0 0.916,4.38 7.028,8.556 6.11,4.176 9.98,4.583 17.109,4.073 0,0 -1.527,-15.48 -18.841,-16.397 m -5.773,-7.274 -5.989,-2.915 -5.945,2.915 -1.407,6.842 7.374,-2.478 7.374,2.478 z m -36.549,23.671 c 7.13,0.51 11,0.103 17.11,-4.073 6.111,-4.176 7.028,-8.556 7.028,-8.556 -10.491,4.583 -11.352,3.251 -11.352,3.251 0.462,-2.759 6.056,-7.019 6.056,-7.019 -17.314,0.917 -18.842,16.397 -18.842,16.397 m -14.395,-2.155 c 2.775,-4.472 7.062,-8.742 7.062,-8.742 -10.388,-0.968 -15.88,6.487 -19.037,11.07 -3.157,4.584 -2.894,10.317 -2.894,10.317 8.658,1.698 15.311,-1.629 19.792,-6.008 4.482,-4.379 5.093,-10.287 5.093,-10.287 -8.453,4.787 -10.016,3.65 -10.016,3.65 m -25.927,112.873 30.402,15.198 19.133,-97.802 21.369,-5.463 21.074,5.463 19.391,97.821 30.439,-15.217 -43.056,-97.363 -28.138,-13.802 v -0.01 l 0.29,0.005 0.71,-0.005 v 0.01 l -28.559,13.802 z m 108.202,25.071 -18.795,-105.501 -18.503,-4.617 -18.762,4.617 -18.548,105.501 z M 75.9125,51.6547 c -9.714,-2.037 -14.629,2.058 -18.189,8.12 -2.737,4.662 -1.713,10.212 -1.713,10.212 2.184,0.319 8.121,0.136 13.689,-4.073 5.567,-4.21 6.875,-8.912 6.875,-8.912 -7.64,3.795 -10.461,2.72 -10.461,2.72 2.517,-4.349 9.799,-8.067 9.799,-8.067 m -38.397,29.689 c -3.259,5.091 -2.75,11.406 -2.75,11.406 10.389,1.121 15.278,-1.019 19.046,-5.193 3.769,-4.176 4.379,-7.436 4.379,-7.436 -3.972,3.157 -10.91,3.191 -10.91,3.191 -0.102,-3.87 7.651,-8.283 7.651,-8.283 -9.37,-2.037 -14.156,1.222 -17.416,6.315 m -11.372,36.969 c -0.679,6.451 3.502,12.309 3.502,12.309 4.51,-2.26 7.633,-6.605 11.571,-15.024 3.938,-8.419 1.222,-13.58 1.222,-13.58 -2.987,6.994 -8.42,8.841 -8.42,8.841 -0.679,-4.224 2.106,-11.625 2.106,-11.625 -9.302,6.247 -9.302,12.629 -9.981,19.079 m -1.087,32.184 c 0.408,9.37 6.72,14.621 6.72,14.621 0,0 3.921,-3.432 5.773,-10.547 3.396,-13.037 -3.53,-20.506 -3.53,-20.506 0.691,6.519 -3.124,12.358 -3.124,12.358 -2.393,-5.312 -2.749,-10.968 -2.749,-10.968 -1.087,1.901 -3.497,5.672 -3.09,15.042 m 11.543,42.979 c 2.037,5.907 9.242,11.05 9.242,11.05 3.744,-7.179 2.674,-15.837 0.331,-22.864 -2.342,-7.027 -6.314,-10.897 -6.314,-10.897 2.037,6.517 0.964,13.457 0.964,13.457 -3.891,-4.379 -5.649,-12.236 -5.649,-12.236 -2.851,9.982 -0.611,15.583 1.426,21.49 m 14.626,-13.858 c 5.459,4.882 8.289,5.1 8.289,5.1 0.917,-3.26 0.363,-10.796 -1.98,-16.5 -2.342,-5.703 -8.894,-11.407 -8.894,-11.407 2.721,5.445 1.329,10.672 1.329,10.672 -6.008,-4.583 -8.278,-9.551 -8.278,-9.551 -1.324,8.351 4.074,16.804 9.534,21.686 m 7.678,30.052 c 4.583,6.823 12.799,7.57 12.799,7.57 0,0 0.747,-6.96 -3.123,-15.209 -3.87,-8.25 -8.646,-11.203 -8.646,-11.203 2.355,5.703 0.701,8.453 0.701,8.453 -4.175,-2.546 -6.735,-8.453 -6.735,-8.453 -1.066,8.396 0.421,12.018 5.004,18.842 m 21.597,30.342 c 6.899,2.457 9.412,2.341 9.412,2.341 -0.693,-5.151 -2.567,-9.02 -7.296,-13.495 -3.31,-3.132 -6.485,-4.624 -11.457,-6.05 -1.535,-0.441 -7.062,-2.937 -7.062,-2.937 -2.647,9.998 9.503,17.683 16.403,20.141 m -23.088,-106.583 c -0.37,-5.934 -7.777,-13.621 -7.777,-13.621 1.766,7.197 -1.765,11.542 -1.765,11.542 -2.988,-2.852 -3.938,-12.765 -3.938,-12.765 -7.876,11.136 -2.716,21.999 0,26.752 2.716,4.753 8.012,6.79 8.012,6.79 5.706,-6.656 5.839,-12.766 5.468,-18.698 m 5.907,-33.1 c -0.778,-7.188 -3.601,-9.514 -3.601,-9.514 0.562,5.244 -2.739,8.096 -2.739,8.096 -3.066,-3.768 -2.659,-8.096 -2.659,-8.096 0,0 -1.629,0.612 -3.259,3.158 -1.63,2.545 -3.055,7.943 -1.63,14.869 1.426,6.926 6.825,10.287 6.825,10.287 5.601,-6.213 7.841,-11.611 7.063,-18.8 m 199.163,36.793 c 0.379,1.913 1.093,4.752 1.221,6.721 1.145,17.607 -7.231,25.223 -7.876,25.97 -0.636,0.738 -1.185,2.428 -1.222,3.447 -0.085,2.329 -0.293,5.528 -0.34,7.858 -0.044,2.169 -0.277,5.267 -0.678,7.401 -0.637,3.385 -1.698,6.123 -3.328,9.166 -0.235,0.44 -0.471,0.88 -0.725,1.308 -0.643,1.081 -1.607,2.174 -2.34,3.19 -0.805,1.113 -1.275,1.596 -2.172,2.641 -0.892,1.038 -1.915,2.121 -4.103,3.876 -1.591,1.276 -3.555,2.55 -5.529,3.447 0,0 -1.544,-2.104 -2.286,-4.104 0,0 -2.497,5.957 -8.421,9.881 -0.512,0.34 -1.043,1.987 -0.978,3.127 0.139,2.462 -0.572,4.793 -1.327,7.109 -6.067,18.581 -33.82,20.109 -33.82,20.109 0.047,-1.303 0.042,-2.514 0.144,-3.717 0.2,-2.374 0.795,-4.949 1.485,-7.232 0.653,-2.159 1.592,-4.8 2.732,-6.489 1.089,-1.616 1.342,-2.055 2.664,-3.492 0.851,-0.927 1.881,-2.091 2.859,-2.879 1.393,-1.122 2.605,-2.067 4.642,-3.423 0.743,-0.495 1.295,-1.041 1.974,-1.517 0.513,-0.358 0.637,-0.8 0.626,-1.399 -0.076,-4.219 0.536,-8.354 1.63,-12.416 0.37,-1.374 0.85,-2.725 1.361,-4.054 0.598,-1.55 1.206,-3.104 1.956,-4.584 0.74,-1.458 1.612,-2.856 2.516,-4.22 0.785,-1.186 1.649,-2.328 2.569,-3.409 0.514,-0.603 0.743,-1.224 0.809,-1.989 0.144,-1.634 0.306,-3.268 0.535,-4.893 0.279,-1.979 0.683,-3.94 0.945,-5.92 0.304,-2.286 0.921,-4.483 1.886,-6.558 0.962,-2.065 2.065,-4.067 3.137,-6.08 0.973,-1.825 1.983,-3.63 2.989,-5.438 0.175,-0.315 0.202,-0.628 0.129,-0.962 -0.223,-1.024 -0.472,-2.038 -0.973,-2.972 -0.886,-1.654 -1.792,-3.301 -2.63,-4.98 -0.498,-0.997 -0.969,-2.023 -1.302,-3.084 -0.586,-1.864 -0.861,-3.795 -1.016,-5.749 -0.253,-3.202 -0.106,-6.377 0.542,-9.519 0.225,-1.093 0.6,-2.152 0.875,-3.235 0.157,-0.622 0.289,-1.253 0.365,-1.888 0.089,-0.73 0.126,-1.343 -0.264,-1.985 -0.652,-1.069 -1.226,-1.618 -1.902,-2.648 -1.332,-2.03 -1.752,-2.942 -2.596,-4.583 -1.115,-2.163 -1.902,-4.094 -2.445,-6.467 -0.664,-2.897 -1.15,-5.38 -1.069,-8.198 0.146,-5.093 1.156,-7.299 2.359,-11.798 0.714,-2.671 1.319,-4.76 2.156,-7.417 0.265,-0.845 1.782,-5.194 0.577,-5.84 -4.094,-2.19 -9.37,-5.431 -12.765,-9.301 -2.749,-3.134 -6.475,-5.435 -6.475,-5.435 -1.485,-0.696 -3.004,-1.181 -4.63,-1.315 -2.943,-0.242 -5.2,-0.689 -8.041,-1.534 -1.818,-0.54 -3.474,-1.52 -5.093,-2.444 -2.203,-1.256 -3.414,-2.29 -5.431,-3.833 -0.593,-0.453 -1.402,-1.303 -2.04,-1.985 l -1.627,3.768 47.827,103.864 -37.115,17.466 h -0.204 l 1.007,6 h 3.206 v 10 l -9.216,7.012 -5.767,-7.012 h -62.034 l -5.767,7.012 -9.216,-7.012 v -10 h 3.772 l 0.994,-6 h -0.177 l -37.115,-17.466 47.826,-103.865 -1.26,-2.919 c -0.211,0.003 -0.413,0.015 -0.627,0.015 0,0 -0.496,0.282 -0.736,0.435 -2.141,1.367 -4.272,3.264 -6.474,4.52 -1.62,0.924 -3.275,1.904 -5.093,2.444 -2.841,0.845 -5.098,1.292 -8.042,1.534 -1.625,0.134 -3.145,0.619 -4.629,1.315 0,0 -3.726,2.301 -6.476,5.435 -3.395,3.87 -8.671,7.111 -12.764,9.301 -1.206,0.646 0.311,4.995 0.576,5.84 0.837,2.657 1.443,4.746 2.157,7.417 1.203,4.499 2.213,6.705 2.359,11.798 0.081,2.818 -0.405,5.301 -1.069,8.198 -0.544,2.373 -1.331,4.304 -2.445,6.467 -0.843,1.641 -1.264,2.553 -2.596,4.583 -0.676,1.03 -1.251,1.579 -1.902,2.648 -0.39,0.642 -0.353,1.255 -0.265,1.985 0.077,0.635 0.209,1.266 0.366,1.888 0.275,1.083 0.65,2.142 0.875,3.235 0.647,3.142 0.794,6.317 0.542,9.519 -0.154,1.954 -0.43,3.885 -1.016,5.749 -0.333,1.061 -0.803,2.087 -1.301,3.084 -0.839,1.679 -1.745,3.326 -2.631,4.98 -0.501,0.934 -0.75,1.948 -0.974,2.972 -0.073,0.334 -0.046,0.647 0.13,0.962 1.006,1.808 2.016,3.613 2.989,5.438 1.072,2.013 2.175,4.015 3.136,6.08 0.966,2.075 1.583,4.272 1.886,6.558 0.263,1.98 0.667,3.941 0.945,5.92 0.229,1.625 0.393,3.259 0.535,4.893 0.067,0.765 0.295,1.386 0.81,1.989 0.921,1.081 1.784,2.223 2.569,3.409 0.904,1.364 1.776,2.762 2.516,4.22 0.75,1.48 1.358,3.034 1.955,4.584 0.512,1.329 0.992,2.68 1.362,4.054 1.093,4.062 1.706,8.197 1.63,12.416 -0.011,0.599 0.113,1.041 0.626,1.399 0.679,0.476 1.231,1.022 1.975,1.517 2.037,1.356 3.248,2.301 4.64,3.423 0.978,0.788 2.008,1.952 2.86,2.879 1.322,1.437 1.575,1.876 2.665,3.492 1.138,1.689 2.077,4.33 2.73,6.489 0.691,2.283 1.286,4.858 1.486,7.232 0.101,1.203 0.097,2.414 0.144,3.717 0,0 -27.753,-1.528 -33.819,-20.109 -0.757,-2.316 -1.468,-4.647 -1.329,-7.109 0.066,-1.14 -0.464,-2.787 -0.978,-3.127 -5.924,-3.924 -8.42,-9.881 -8.42,-9.881 -0.742,2 -2.286,4.104 -2.286,4.104 -1.975,-0.897 -3.939,-2.171 -5.528,-3.447 -2.189,-1.755 -3.212,-2.838 -4.104,-3.876 -0.897,-1.045 -1.367,-1.528 -2.172,-2.641 -0.734,-1.016 -1.697,-2.109 -2.34,-3.19 -0.255,-0.428 -0.49,-0.868 -0.726,-1.308 -1.63,-3.043 -2.69,-5.781 -3.326,-9.166 -0.402,-2.134 -0.636,-5.232 -0.679,-7.401 -0.047,-2.33 -0.256,-5.529 -0.34,-7.858 -0.037,-1.019 -0.586,-2.709 -1.223,-3.447 -0.644,-0.747 -9.021,-8.363 -7.876,-25.97 0.128,-1.969 0.843,-4.808 1.222,-6.721 0.162,-0.816 0.34,-1.631 0.487,-2.45 0.227,-1.256 0.171,-2.513 -0.015,-3.769 -0.515,-3.463 -0.896,-6.938 -1.03,-10.438 -0.104,-2.751 0.152,-5.475 0.716,-8.162 0.434,-2.071 0.863,-4.143 1.607,-6.136 0.634,-1.699 1.2,-2.89 2.197,-4.645 0.608,-1.069 1.488,-2.103 2.278,-3.05 1.158,-1.387 0.822,-0.967 2.01,-2.327 0.255,-0.292 1.163,-1.129 1.113,-1.514 -0.218,-1.698 -0.247,-3.655 -0.23,-5.581 0.017,-2.059 0.373,-4.167 1.29,-6.535 4.484,-11.586 17.037,-13.459 17.037,-13.459 0.4,-0.241 0.587,-0.447 0.684,-0.918 0.35,-1.701 0.336,-2.667 0.76,-4.35 0.635,-2.514 1.582,-5.768 2.601,-7.346 1.123,-1.742 2.288,-3.199 3.633,-4.77 2.817,-3.293 7.095,-4.922 7.095,-4.922 2.246,-1.027 7.071,-2.122 9.505,-2.377 1.335,-0.14 2.661,0.075 3.974,0.279 1.053,0.164 2.089,0.443 3.13,0.679 0.48,0.108 0.553,0.097 0.734,-0.402 0.747,-2.058 2.826,-4.501 4.193,-6.193 0.608,-0.753 1.335,-1.411 2.01,-2.11 1.147,-1.186 2.455,-2.187 3.833,-3.066 1.293,-0.826 2.609,-1.612 4.068,-2.18 2.133,-0.832 4.336,-0.964 6.565,-1.119 2.499,-0.174 4.99,-0.07 7.481,0.074 1.279,0.073 2.555,0.242 3.824,0.425 0.506,0.072 0.862,-0.065 1.22,-0.394 1.472,-1.358 3.09,-2.534 4.816,-3.534 1.393,-0.807 2.839,-1.544 4.325,-2.156 0.93,-0.384 1.968,-0.549 2.976,-0.686 1.716,-0.232 3.445,-0.371 5.17,-0.543 l 0.676,-3.774 10.017,-5.781 10.017,5.781 0.676,3.774 c 1.725,0.172 3.454,0.311 5.17,0.543 1.007,0.137 2.046,0.302 2.976,0.686 1.486,0.612 2.933,1.349 4.324,2.156 1.727,1 3.345,2.176 4.818,3.534 0.357,0.329 0.712,0.466 1.218,0.394 1.27,-0.183 2.546,-0.352 3.824,-0.425 2.492,-0.144 4.983,-0.248 7.481,-0.074 2.23,0.155 4.433,0.287 6.566,1.119 1.458,0.568 2.775,1.354 4.068,2.18 1.378,0.879 2.686,1.88 3.833,3.066 0.675,0.699 1.402,1.357 2.011,2.11 1.365,1.692 3.445,4.135 4.192,6.193 0.182,0.499 0.254,0.51 0.733,0.402 1.042,-0.236 2.077,-0.515 3.131,-0.679 1.313,-0.204 2.638,-0.419 3.974,-0.279 2.434,0.255 7.259,1.35 9.505,2.377 0,0 4.277,1.629 7.095,4.922 1.345,1.571 2.509,3.028 3.633,4.77 1.019,1.578 1.966,4.832 2.6,7.346 0.425,1.683 0.411,2.649 0.761,4.35 0.097,0.471 0.284,0.677 0.684,0.918 0,0 12.552,1.873 17.037,13.459 0.916,2.368 1.272,4.476 1.289,6.535 0.018,1.926 -0.01,3.883 -0.23,5.581 -0.05,0.385 0.858,1.222 1.113,1.514 1.19,1.36 0.853,0.94 2.01,2.327 0.79,0.947 1.67,1.981 2.278,3.05 0.998,1.755 1.564,2.946 2.198,4.645 0.745,1.993 1.173,4.065 1.607,6.136 0.563,2.687 0.82,5.411 0.716,8.162 -0.134,3.5 -0.516,6.975 -1.031,10.438 -0.186,1.256 -0.241,2.513 -0.014,3.769 0.147,0.819 0.325,1.634 0.487,2.45" /><path
       inkscape:connector-curvature="0"
       id="path146"
       style="fill:#282e3c;fill-opacity:1;fill-rule:nonzero;stroke:none"
       d="m 184.8224,165.6129 -5.322,-24.718 5.744,-3.993 -0.131,-0.435 -19.909,-65.425 -0.069,-0.018 -23.403,-6.108 -0.158,0.041 -23.313,6.085 -0.102,0.334 -19.94,65.526 0.076,0.052 5.67,3.941 -5.323,24.718 -22.77,-11.257 39.585,-92.879 26.275,-12.823 26.275,12.823 39.586,92.879 z" /></g></svg>